<?xml version="1.0" encoding="UTF-8"?>
<svg id="Layer_1" xmlns="http://www.w3.org/2000/svg" version="1.1" viewBox="0 0 800 800">
  <!-- Generator: Adobe Illustrator 29.8.3, SVG Export Plug-In . SVG Version: 2.1.1 Build 3)  -->
  <defs>
    <style>
      .st0 {
        letter-spacing: -.03em;
      }

      .st0, .st1, .st2 {
        fill: #49444f;
      }

      .st3, .st1 {
        letter-spacing: -.02em;
      }

      .st3, .st4 {
        fill: #a11d2d;
      }

      .st5 {
        fill: none;
      }

      .st6 {
        font-family: LouisGeorgeCafe, 'Louis George Café';
        font-size: 88.04px;
      }
    </style>
  </defs>
  <text class="st6" transform="translate(989.34 -21.49)"><tspan class="st0" x="0" y="0">ARCH</tspan><tspan class="st2" x="214.26" y="0">ITE</tspan><tspan class="st1" x="319.49" y="0">CT </tspan><tspan class="st3" x="436.31" y="0">57</tspan></text>
  <g>
    <path class="st2" d="M496.26,336.28h.52c7.28,0,13.86,2.97,19.73,8.9,2.61,3.09,4.23,5.45,4.86,7.05-3.44,1.78-5.22,2.67-5.33,2.67-.75-1.43-1.72-2.92-2.92-4.47-4.79-5.42-10.27-8.12-16.46-8.12h-.26c-6.48,0-12.11,2.9-16.89,8.68-3.73,5.02-5.59,10.53-5.59,16.55v.43c0,6.99,2.42,13.15,7.26,18.48,4.5,4.5,9.64,6.75,15.43,6.75,6.33,0,11.91-2.79,16.72-8.38,1.17-1.6,2.11-3.07,2.79-4.38l5.29,2.75c-.66,1.72-2.39,4.21-5.2,7.48-5.79,5.7-12.38,8.55-19.77,8.55-7.88,0-14.83-3.29-20.85-9.89-5.13-6.39-7.69-13.51-7.69-21.37v-.43c0-8.63,3.01-16.21,9.03-22.74,5.76-5.67,12.21-8.51,19.34-8.51Z"/>
    <g>
      <polygon class="st2" points="541.42 342.29 541.42 359.16 547.44 357.87 547.44 342.29 564.24 342.29 564.29 342.25 564.29 336.32 564.24 336.28 524.57 336.28 524.52 336.32 524.52 342.25 524.57 342.29 541.42 342.29"/>
      <polygon class="st2" points="541.42 362.79 541.42 399.17 541.46 399.21 547.39 399.21 547.44 399.17 547.44 361.51 541.42 362.79"/>
    </g>
    <g>
      <path class="st2" d="M253.08,357.44c.86-1.96,1.96-3.85,3.32-5.67,4.79-5.79,10.42-8.68,16.89-8.68h.26c6.19,0,11.68,2.71,16.46,8.12,1.2,1.55,2.18,3.04,2.92,4.47.11,0,1.89-.89,5.33-2.67-.63-1.6-2.25-3.96-4.86-7.05-5.88-5.93-12.45-8.9-19.73-8.9h-.52c-7.14,0-13.58,2.84-19.34,8.51-3.01,3.26-5.26,6.79-6.77,10.57l6.03,1.29Z"/>
      <path class="st2" d="M290.23,385.6c-4.81,5.59-10.39,8.38-16.72,8.38-5.79,0-10.93-2.25-15.43-6.75-4.84-5.33-7.27-11.49-7.27-18.48v-.43c0-2.6.37-5.09,1.06-7.5l-5.94-1.27c-.76,2.79-1.14,5.71-1.14,8.77v.43c0,7.85,2.56,14.97,7.69,21.37,6.02,6.59,12.97,9.89,20.85,9.89,7.39,0,13.98-2.85,19.77-8.55,2.81-3.27,4.54-5.76,5.2-7.48l-5.29-2.75c-.69,1.32-1.62,2.78-2.79,4.38Z"/>
    </g>
    <path class="st2" d="M237.03,357.92v-.64c0-4.61-1.6-8.94-4.81-12.98-4.44-4.81-9.69-7.22-15.73-7.22h-19.73l-.13.13v18.6h6.02v-12.71h13.8c3.24,0,6.22,1.02,8.94,3.05,3.75,3.09,5.63,6.82,5.63,11.18v.52c0,2.81-.87,5.53-2.62,8.17-3.21,4.04-7.18,6.06-11.91,6.06h-13.84v-12.71h-6.02v40.52l.13.13h5.76l.13-.13v-21.75h14.4l7.27,12.85c3.21,5.79,4.91,8.78,5.12,8.98h7.05l.04-.09-13.2-22.96c2.26-.72,4.6-2.08,7.01-4.08,4.47-4.38,6.71-9.36,6.71-14.92Z"/>
    <path class="st2" d="M189.67,398.54l-22.65-58.21c-.8-2.18-1.26-3.27-1.38-3.27h-6.23l-24.55,62.89h.04l.09.04h6.23c.14-.17.59-1.25,1.33-3.22,2.89-7.51,4.41-11.36,4.56-11.56h13.61v-6.06h-11.29l13.02-33.49h.04l13.07,33.49h-11.29v6.06h13.53c.14.14.85,1.82,2.11,5.03,2.38,6.3,3.65,9.56,3.83,9.76h6.45l.09-.04-.6-1.42Z"/>
    <polygon class="st2" points="353.01 335.48 347.21 335.48 347.12 335.61 347.12 363.9 319.35 363.9 319.35 335.61 319.22 335.48 313.46 335.48 313.33 335.61 313.33 363.94 306.07 363.94 306.07 363.98 306.07 369.92 306.07 369.96 313.33 369.96 313.33 398.29 313.46 398.42 319.22 398.42 319.35 398.29 319.35 369.92 347.12 369.92 347.12 398.29 347.21 398.42 353.01 398.42 353.14 398.29 353.14 335.61 353.01 335.48"/>
    <g>
      <polygon class="st4" points="371.99 336.28 366.06 336.28 366.02 336.29 366.02 351.41 366.06 351.43 371.99 351.43 372.03 351.41 372.03 336.29 371.99 336.28"/>
      <polygon class="st2" points="366.06 354.98 366.02 355.01 366.02 399.18 366.06 399.21 371.99 399.21 372.03 399.18 372.03 355.01 371.99 354.98 366.06 354.98"/>
    </g>
    <g>
      <polygon class="st2" points="397.81 392.98 397.81 399.17 397.86 399.21 403.79 399.21 403.83 399.17 403.83 391.7 397.81 392.98"/>
      <polygon class="st2" points="397.81 342.29 397.81 389.35 403.83 388.06 403.83 342.29 420.64 342.29 420.68 342.25 420.68 336.32 420.64 336.28 380.96 336.28 380.92 336.32 380.92 342.25 380.96 342.29 397.81 342.29"/>
    </g>
    <g>
      <polygon class="st2" points="435.61 393.19 435.61 385.41 429.59 386.69 429.59 399.17 429.63 399.21 460.88 399.21 460.93 399.17 460.93 393.23 460.88 393.19 435.61 393.19"/>
      <polygon class="st2" points="460.88 336.28 429.63 336.28 429.59 336.32 429.59 364.78 429.58 364.73 422.02 364.73 422.01 364.78 422.01 370.71 422.02 370.75 429.58 370.75 429.59 370.71 429.59 383.06 435.61 381.77 435.61 370.75 455.81 370.75 455.85 370.71 455.85 364.78 455.81 364.73 435.61 364.73 435.61 342.29 460.88 342.29 460.93 342.25 460.93 336.32 460.88 336.28"/>
    </g>
  </g>
  <g>
    <path class="st4" d="M668.55,335.39c-1.61,3.05-2.97,5.65-4.11,7.8h8.65l6.42-12.08v-7.18l-.05-.05h-45.59l-.05.05v7.56l.05.05h36.66c-.07.26-.73,1.53-1.97,3.84Z"/>
    <path class="st4" d="M662.04,347.73c-1.16,2.18-1.75,3.28-1.76,3.28l-10.3,19.45-13.7,25.97c4.35,2.34,6.59,3.53,6.74,3.56h.05l3.29-6.25,11.4-21.59,12.55-23.73.37-.7h-8.64Z"/>
  </g>
  <g>
    <path class="st4" d="M599.28,392.33c-3.01-.14-5.92-1.01-8.75-2.6-1.13-.62-2.39-1.57-3.78-2.85-.99-.99-1.74-1.81-2.25-2.47-.88-1.24-1.61-2.48-2.19-3.73l-6.96,3.12c.07.29.35.86.82,1.7.51,1.06,1.24,2.21,2.19,3.45.44.69,1.42,1.84,2.96,3.45,1.61,1.46,2.92,2.5,3.94,3.12,1.53.99,3.05,1.79,4.55,2.41,3.29,1.31,6.44,1.98,9.46,2.05v-7.67Z"/>
    <path class="st4" d="M622.81,357.01c-.66-.99-1.7-2.23-3.12-3.73-1.42-1.35-2.58-2.32-3.45-2.9-4.86-3.4-10.14-5.1-15.84-5.1-2.05,0-4.07.22-6.08.66h-.05l3.67-14.3.6-2.36h23.67v-7.62l-.05-.05h-29.59v.05l-4.27,16.6-5.53,21.75,6.91-3.94c3.4-2.08,6.96-3.12,10.68-3.12,4.68,0,8.91,1.55,12.71,4.66.62.51,1.35,1.24,2.19,2.19,3.21,3.8,4.82,8.11,4.82,12.93,0,3.1-.77,6.14-2.3,9.1-.44.88-1.1,1.9-1.97,3.07l-1.1,1.26c-1.13,1.13-2.01,1.92-2.63,2.36-2.64,1.86-5.39,3.04-8.26,3.55v7.75c2.44-.31,4.92-.97,7.43-2.04,1.35-.55,2.9-1.41,4.66-2.58.99-.66,2.25-1.72,3.78-3.18,1.28-1.32,2.25-2.43,2.9-3.34,3.43-4.89,5.15-10.23,5.15-16s-1.64-10.89-4.93-15.67Z"/>
  </g>
  <g>
    <g>
      <path class="st2" d="M194.8-254.73l16.02,22.71h-6.52l-15.76-22.36h-17.52v22.36h-5.63v-60.49h24.83c12.41,0,21.83,7.92,21.83,19.11,0,9.77-7.13,16.99-17.26,18.67ZM171.03-259.75h18.22c10.12,0,17.17-5.28,17.17-13.65s-7.04-13.74-17.17-13.74h-18.22v27.38Z"/>
      <path class="st2" d="M219.01-262.31c0-16.99,14.26-31.25,30.99-31.25,8.36,0,16.11,3.52,21.75,9.24l-3.87,3.87c-4.58-4.75-11.01-7.84-17.87-7.84-13.73,0-25.27,11.89-25.27,25.97s11.53,26.06,25.27,26.06c6.87,0,13.29-3.08,17.87-7.92l3.87,3.96c-5.63,5.63-13.38,9.25-21.75,9.25-16.73,0-30.99-14.35-30.99-31.34Z"/>
      <path class="st2" d="M328.53-292.5v60.49h-5.63v-28.09h-36.89v28.09h-5.63v-60.49h5.63v26.94h36.89v-26.94h5.63Z"/>
      <path class="st2" d="M375.54-287.13h-20.95v-5.37h47.54v5.37h-20.96v55.12h-5.63v-55.12Z"/>
      <path class="st2" d="M464.64-262.31c0-16.99,14.26-31.25,30.99-31.25,8.36,0,16.11,3.52,21.75,9.24l-3.87,3.87c-4.58-4.75-11.01-7.84-17.87-7.84-13.73,0-25.27,11.89-25.27,25.97s11.53,26.06,25.27,26.06c6.87,0,13.29-3.08,17.87-7.92l3.87,3.96c-5.63,5.63-13.38,9.25-21.75,9.25-16.73,0-30.99-14.35-30.99-31.34Z"/>
      <path class="st2" d="M545.72-287.13h-20.95v-5.37h47.54v5.37h-20.95v55.12h-5.63v-55.12Z"/>
      <path class="st5" d="M52.66-255.97"/>
    </g>
    <g>
      <polygon class="st4" points="114.29 -247.37 111.83 -241.91 146.52 -241.91 144.05 -247.37 114.29 -247.37"/>
      <polygon class="st2" points="132.25 -291.45 126.09 -291.45 99.41 -230.96 105.58 -230.96 111.83 -245.22 114.29 -250.68 129.17 -284.49 144.05 -250.68 146.52 -245.22 152.77 -230.96 158.93 -230.96 132.25 -291.45"/>
    </g>
    <path class="st4" d="M595.38-240.56l4.09-4.14c5.26,5.28,12.08,8.54,19.77,8.54,9.35,0,16.46-6.34,16.46-14.44s-7.11-13.73-16.56-13.73c-5.46,0-10.62,1.94-15,4.84l-4.87-2.11.88-30.9h38.67v5.37h-32.53l-.68,22.01c3.7-2.46,8.77-4.31,14.9-4.31,11.69,0,21.53,7.31,21.53,18.58s-9.94,19.9-22.99,19.9c-9.94,0-18.12-3.79-23.67-9.6Z"/>
    <path class="st4" d="M693.27-286.08h-37.5v-5.37h45v4.31l-29.32,56.17h-7.11l28.93-55.12Z"/>
    <g>
      <rect class="st2" x="340.24" y="-272.39" width="5.63" height="41.42"/>
      <rect class="st4" x="340.24" y="-291.45" width="5.63" height="16.41"/>
    </g>
    <g>
      <rect class="st4" x="401.5" y="-264.52" width="11.37" height="5.48"/>
      <polygon class="st2" points="457.07 -286.08 457.07 -291.45 414.89 -291.45 414.89 -230.96 457.07 -230.96 457.07 -236.33 420.62 -236.33 420.62 -259.05 453.72 -259.05 453.72 -264.51 420.62 -264.51 420.62 -286.08 457.07 -286.08"/>
    </g>
  </g>
</svg>