<?xml version="1.0" encoding="UTF-8"?>
<svg id="Layer_1" xmlns="http://www.w3.org/2000/svg" version="1.1" viewBox="0 0 558.08 92.44">
  <!-- Generator: Adobe Illustrator 29.8.3, SVG Export Plug-In . SVG Version: 2.1.1 Build 3)  -->
  <defs>
    <style>
      .st0 {
        fill: #a11d2d;
      }

      .st1 {
        fill: #ffffff;
      }
    </style>
  </defs>
  <g>
    <path class="st1" d="M366.82,23.07h.52c7.28,0,13.86,2.97,19.73,8.9,2.61,3.09,4.23,5.45,4.86,7.05-3.44,1.78-5.22,2.67-5.33,2.67-.75-1.43-1.72-2.92-2.92-4.47-4.79-5.42-10.27-8.12-16.46-8.12h-.26c-6.48,0-12.11,2.9-16.89,8.68-3.73,5.02-5.59,10.53-5.59,16.55v.43c0,6.99,2.42,13.15,7.26,18.48,4.5,4.5,9.64,6.75,15.43,6.75,6.33,0,11.91-2.79,16.72-8.38,1.17-1.6,2.11-3.07,2.79-4.38l5.29,2.75c-.66,1.72-2.39,4.21-5.2,7.48-5.79,5.7-12.38,8.55-19.77,8.55-7.88,0-14.83-3.29-20.85-9.89-5.13-6.39-7.69-13.51-7.69-21.37v-.43c0-8.63,3.01-16.21,9.03-22.74,5.76-5.67,12.21-8.51,19.34-8.51Z"/>
    <g>
      <polygon class="st1" points="411.98 29.08 411.98 45.95 417.99 44.66 417.99 29.08 434.8 29.08 434.84 29.04 434.84 23.11 434.8 23.07 395.12 23.07 395.08 23.11 395.08 29.04 395.12 29.08 411.98 29.08"/>
      <polygon class="st1" points="411.98 49.58 411.98 85.96 412.02 86 417.95 86 417.99 85.96 417.99 48.3 411.98 49.58"/>
    </g>
    <g>
      <path class="st1" d="M123.63,44.23c.86-1.96,1.96-3.85,3.32-5.67,4.79-5.79,10.42-8.68,16.89-8.68h.26c6.19,0,11.68,2.71,16.46,8.12,1.2,1.55,2.18,3.04,2.92,4.47.11,0,1.89-.89,5.33-2.67-.63-1.6-2.25-3.96-4.86-7.05-5.88-5.93-12.45-8.9-19.73-8.9h-.52c-7.14,0-13.58,2.84-19.34,8.51-3.01,3.26-5.26,6.79-6.77,10.57l6.03,1.29Z"/>
      <path class="st1" d="M160.78,72.39c-4.81,5.59-10.39,8.38-16.72,8.38-5.79,0-10.93-2.25-15.43-6.75-4.84-5.33-7.27-11.49-7.27-18.48v-.43c0-2.6.37-5.09,1.06-7.5l-5.94-1.27c-.76,2.79-1.14,5.71-1.14,8.77v.43c0,7.85,2.56,14.97,7.69,21.37,6.02,6.59,12.97,9.89,20.85,9.89,7.39,0,13.98-2.85,19.77-8.55,2.81-3.27,4.54-5.76,5.2-7.48l-5.29-2.75c-.69,1.32-1.62,2.78-2.79,4.38Z"/>
    </g>
    <path class="st1" d="M107.59,44.7v-.64c0-4.61-1.6-8.94-4.81-12.98-4.44-4.81-9.69-7.22-15.73-7.22h-19.73l-.13.13v18.6h6.02v-12.71h13.8c3.24,0,6.22,1.02,8.94,3.05,3.75,3.09,5.63,6.82,5.63,11.18v.52c0,2.81-.87,5.53-2.62,8.17-3.21,4.04-7.18,6.06-11.91,6.06h-13.84v-12.71h-6.02v40.52l.13.13h5.76l.13-.13v-21.75h14.4l7.27,12.85c3.21,5.79,4.91,8.78,5.12,8.98h7.05l.04-.09-13.2-22.96c2.26-.72,4.6-2.08,7.01-4.08,4.47-4.38,6.71-9.36,6.71-14.92Z"/>
    <path class="st1" d="M60.23,85.33l-22.65-58.21c-.8-2.18-1.26-3.27-1.38-3.27h-6.23L5.42,86.75h.04l.09.04h6.23c.14-.17.59-1.25,1.33-3.22,2.89-7.51,4.41-11.36,4.56-11.56h13.61v-6.06h-11.29l13.02-33.49h.04l13.07,33.49h-11.29v6.06h13.53c.14.14.85,1.82,2.11,5.03,2.38,6.3,3.65,9.56,3.83,9.76h6.45l.09-.04-.6-1.42Z"/>
    <polygon class="st1" points="223.57 22.27 217.76 22.27 217.68 22.4 217.68 50.69 189.91 50.69 189.91 22.4 189.78 22.27 184.02 22.27 183.89 22.4 183.89 50.73 176.63 50.73 176.62 50.77 176.62 56.71 176.63 56.75 183.89 56.75 183.89 85.08 184.02 85.21 189.78 85.21 189.91 85.08 189.91 56.71 217.68 56.71 217.68 85.08 217.76 85.21 223.57 85.21 223.7 85.08 223.7 22.4 223.57 22.27"/>
    <g>
      <polygon class="st0" points="242.55 23.07 236.62 23.07 236.57 23.08 236.57 38.2 236.62 38.22 242.55 38.22 242.59 38.2 242.59 23.08 242.55 23.07"/>
      <polygon class="st1" points="236.62 41.77 236.57 41.8 236.57 85.97 236.62 86 242.55 86 242.59 85.97 242.59 41.8 242.55 41.77 236.62 41.77"/>
    </g>
    <g>
      <polygon class="st1" points="268.37 79.77 268.37 85.96 268.42 86 274.35 86 274.39 85.96 274.39 78.49 268.37 79.77"/>
      <polygon class="st1" points="268.37 29.08 268.37 76.14 274.39 74.85 274.39 29.08 291.2 29.08 291.24 29.04 291.24 23.11 291.2 23.07 251.52 23.07 251.48 23.11 251.48 29.04 251.52 29.08 268.37 29.08"/>
    </g>
    <g>
      <polygon class="st1" points="306.17 79.98 306.17 72.2 300.15 73.48 300.15 85.96 300.19 86 331.44 86 331.49 85.96 331.49 80.02 331.44 79.98 306.17 79.98"/>
      <polygon class="st1" points="331.44 23.07 300.19 23.07 300.15 23.11 300.15 51.57 300.14 51.52 292.58 51.52 292.57 51.57 292.57 57.5 292.58 57.54 300.14 57.54 300.15 57.5 300.15 69.85 306.17 68.56 306.17 57.54 326.37 57.54 326.41 57.5 326.41 51.57 326.37 51.52 306.17 51.52 306.17 29.08 331.44 29.08 331.49 29.04 331.49 23.11 331.44 23.07"/>
    </g>
  </g>
  <g>
    <path class="st0" d="M539.11,22.18c-1.61,3.05-2.97,5.65-4.11,7.8h8.65l6.42-12.08v-7.18l-.05-.05h-45.59l-.05.05v7.56l.05.05h36.66c-.07.26-.73,1.53-1.97,3.84Z"/>
    <path class="st0" d="M532.6,34.52c-1.16,2.18-1.75,3.28-1.76,3.28l-10.3,19.45-13.7,25.97c4.35,2.34,6.59,3.53,6.74,3.56h.05l3.29-6.25,11.4-21.59,12.55-23.73.37-.7h-8.64Z"/>
  </g>
  <g>
    <path class="st0" d="M469.84,79.12c-3.01-.14-5.92-1.01-8.75-2.6-1.13-.62-2.39-1.57-3.78-2.85-.99-.99-1.74-1.81-2.25-2.47-.88-1.24-1.61-2.48-2.19-3.73l-6.96,3.12c.07.29.35.86.82,1.7.51,1.06,1.24,2.21,2.19,3.45.44.69,1.42,1.84,2.96,3.45,1.61,1.46,2.92,2.5,3.94,3.12,1.53.99,3.05,1.79,4.55,2.41,3.29,1.31,6.44,1.98,9.46,2.05v-7.67Z"/>
    <path class="st0" d="M493.37,43.8c-.66-.99-1.7-2.23-3.12-3.73-1.42-1.35-2.58-2.32-3.45-2.9-4.86-3.4-10.14-5.1-15.84-5.1-2.05,0-4.07.22-6.08.66h-.05l3.67-14.3.6-2.36h23.67v-7.62l-.05-.05h-29.59v.05l-4.27,16.6-5.53,21.75,6.91-3.94c3.4-2.08,6.96-3.12,10.68-3.12,4.68,0,8.91,1.55,12.71,4.66.62.51,1.35,1.24,2.19,2.19,3.21,3.8,4.82,8.11,4.82,12.93,0,3.1-.77,6.14-2.3,9.1-.44.88-1.1,1.9-1.97,3.07l-1.1,1.26c-1.13,1.13-2.01,1.92-2.63,2.36-2.64,1.86-5.39,3.04-8.26,3.55v7.75c2.44-.31,4.92-.97,7.43-2.04,1.35-.55,2.9-1.41,4.66-2.58.99-.66,2.25-1.72,3.78-3.18,1.28-1.32,2.25-2.43,2.9-3.34,3.43-4.89,5.15-10.23,5.15-16s-1.64-10.89-4.93-15.67Z"/>
  </g>
</svg>